<svg width="21" height="24" viewBox="0 0 21 24" fill="none" xmlns="http://www.w3.org/2000/svg">
<path d="M19.7371 18.8717C19.3893 19.6752 18.9776 20.4149 18.5005 21.0949C17.8503 22.022 17.3179 22.6637 16.9076 23.0201C16.2716 23.605 15.5901 23.9045 14.8604 23.9216C14.3365 23.9216 13.7048 23.7725 12.9693 23.4701C12.2315 23.1691 11.5535 23.0201 10.9335 23.0201C10.2833 23.0201 9.58589 23.1691 8.83997 23.4701C8.09292 23.7725 7.49111 23.9301 7.03098 23.9457C6.3312 23.9755 5.6337 23.6674 4.93748 23.0201C4.49311 22.6325 3.93729 21.968 3.27145 21.0268C2.55705 20.0216 1.96971 18.856 1.50959 17.5272C1.0168 16.0919 0.769775 14.702 0.769775 13.3564C0.769775 11.815 1.10284 10.4856 1.76996 9.37154C2.29426 8.4767 2.99176 7.77082 3.86474 7.25262C4.73772 6.73443 5.68098 6.47036 6.69678 6.45347C7.2526 6.45347 7.98148 6.6254 8.88725 6.96329C9.79047 7.30231 10.3704 7.47424 10.6247 7.47424C10.8148 7.47424 11.4591 7.27321 12.5512 6.87243C13.5841 6.50075 14.4558 6.34685 15.1699 6.40747C17.105 6.56364 18.5587 7.32645 19.5256 8.70073C17.7949 9.74932 16.9389 11.218 16.9559 13.1021C16.9715 14.5697 17.5039 15.7909 18.5502 16.7606C19.0244 17.2106 19.554 17.5584 20.1431 17.8055C20.0154 18.176 19.8805 18.5309 19.7371 18.8717ZM15.2991 1.40782C15.2991 2.55809 14.8789 3.63208 14.0412 4.62616C13.0304 5.80793 11.8077 6.49081 10.4819 6.38305C10.465 6.24506 10.4552 6.09982 10.4552 5.9472C10.4552 4.84295 10.9359 3.66119 11.7896 2.69493C12.2158 2.2057 12.7578 1.79891 13.4151 1.47441C14.071 1.15475 14.6915 0.977966 15.275 0.947693C15.292 1.10146 15.2991 1.25525 15.2991 1.40781V1.40782Z" fill="white"/>
</svg>
