<svg viewBox="35.3 161.7 296.1 148.7">
    <path transform="translate(-22.0, -108.0)" d="M 350.1990051269531 269.7489929199219 C 347.06298828125 270.0530090332031 344.3519897460938 272.4360046386719 341.4660034179688 274.385009765625 C 340.4519958496094 274.7760009765625 339.43701171875 275.1679992675781 338.4230041503906 275.5589904785156 C 336.1960144042969 276.7229919433594 334.43701171875 278.093994140625 332.1600036621094 279.4840087890625 C 330.7099914550781 280.3689880371094 328.5570068359375 280.8630065917969 327.0400085449219 281.8030090332031 C 325.5169982910156 282.7460021972656 324.343994140625 283.7330017089844 322.7650146484375 284.6919860839844 C 321.3450012207031 285.5530090332031 319.135986328125 286.0390014648438 317.6440124511719 287.010986328125 C 316.2749938964844 287.9030151367188 315.427001953125 288.68798828125 313.9710083007812 289.6260070800781 L 312.7359924316406 289.9819946289062 C 311.2099914550781 290.7640075683594 309.6839904785156 291.5459899902344 308.1579895019531 292.3280029296875 C 306.8559875488281 293.1419982910156 305.9630126953125 294.0220031738281 304.5759887695312 294.8340148925781 L 303.7319946289062 294.9450073242188 C 302.7680053710938 295.4259948730469 301.8039855957031 295.9079895019531 300.8410034179688 296.3900146484375 C 294.2170104980469 300.0849914550781 288.1650085449219 303.7269897460938 281.5690002441406 307.8389892578125 C 277.2470092773438 310.5339965820312 272.4339904785156 313.0169982910156 267.9570007324219 315.2969970703125 C 262.0580139160156 318.3009948730469 256.8999938964844 321.9150085449219 251.0339965820312 324.9339904785156 C 247.3170013427734 326.8479919433594 243.0549926757812 328.8940124511719 239.5299987792969 331.0969848632812 C 230.4450073242188 336.7749938964844 220.8049926757812 341.1409912109375 211.6750030517578 346.7739868164062 C 209.8179931640625 347.72900390625 207.9600067138672 348.6839904785156 206.1029968261719 349.6380004882812 C 198.1109924316406 354.6310119628906 189.5789947509766 358.9119873046875 181.3789978027344 363.3529968261719 C 167.6130065917969 370.8089904785156 154.2830047607422 378.4769897460938 140.6660003662109 386.14599609375 C 137.0299987792969 388.1940002441406 132.7200012207031 390.1700134277344 129.1609954833984 392.3089904785156 C 127.0739974975586 393.5639953613281 124.5 395.5299987792969 122.265998840332 396.3169860839844 C 119.6060028076172 397.2529907226562 116.7070007324219 398.177001953125 114.0410003662109 399.0899963378906 C 110.6380004882812 400.2550048828125 107.5179977416992 404.0069885253906 103.9509963989258 404 C 101.0410003662109 403.9939880371094 96.24099731445312 400.6499938964844 94.24400329589844 398.22900390625 L 92.97599792480469 397.3760070800781 C 91.25399780273438 395.1109924316406 88.20500183105469 393.1090087890625 86.38800048828125 390.906005859375 C 85.68299865722656 390.0509948730469 84.77300262451172 389.9129943847656 84.09200286865234 389.0220031738281 C 83.28099822998047 387.9590148925781 81.86799621582031 386.6960144042969 80.91899871826172 385.697998046875 L 79.40899658203125 384.6820068359375 C 78.67400360107422 383.7980041503906 76.38300323486328 381.8269958496094 74.81800079345703 381.2529907226562 C 71.35099792480469 379.97900390625 62.87300109863281 380.4509887695312 60.52000045776367 385.1099853515625 C 59.86399841308594 386.4110107421875 59.71599960327148 387.9930114746094 59.30799865722656 389.2980041503906 C 57.58000183105469 394.8250122070312 55.84600067138672 403.0920104980469 59.31999969482422 407.7909851074219 C 63.0359992980957 412.8179931640625 71.24099731445312 413.06298828125 76.00900268554688 414.4460144042969 C 78.87400054931641 415.2770080566406 81.73999786376953 415.7699890136719 84.42600250244141 416.5499877929688 C 86.94499969482422 417.2820129394531 89.4010009765625 418.27099609375 91.83200073242188 418.3980102539062 C 95.81199645996094 418.6069946289062 101.0709991455078 415.4509887695312 104.7249984741211 413.1709899902344 L 108.2190017700195 411.4519958496094 C 110.6480026245117 410.0350036621094 113.0770034790039 408.6170043945312 115.5059967041016 407.1990051269531 C 116.4400024414062 406.7539978027344 117.3740005493164 406.3080139160156 118.306999206543 405.8630065917969 C 120.8639984130859 404.1130065917969 122.6660003662109 401.9419860839844 125.2590026855469 400.1969909667969 C 125.9189987182617 399.7539978027344 126.7620010375977 399.5029907226562 127.5479965209961 399.0249938964844 C 132.1620025634766 396.2149963378906 137.0899963378906 393.7349853515625 141.8829956054688 391.0360107421875 L 145.3760070800781 389.3169860839844 C 150.4949951171875 386.1210021972656 155.6430053710938 383.6820068359375 160.7640075683594 380.510986328125 C 162.6210021972656 379.5570068359375 164.47900390625 378.6019897460938 166.3359985351562 377.6480102539062 C 171.1150054931641 374.6610107421875 176.1640014648438 372.2309875488281 180.9709930419922 369.5220031738281 C 189.0449981689453 364.9729919433594 196.7949981689453 360.4219970703125 204.9720001220703 355.9989929199219 C 208.1529998779297 354.2780151367188 211.9029998779297 352.4809875488281 215 350.7090148925781 C 220.7989959716797 347.3900146484375 226.1219940185547 344.1109924316406 232.0140075683594 340.9620056152344 C 236.5370025634766 338.5450134277344 241.2310028076172 336.1629943847656 245.7160034179688 333.39599609375 C 249.7279968261719 330.9209899902344 254.6109924316406 328.9630126953125 258.6050109863281 326.4700012207031 C 263.2219848632812 323.5880126953125 267.9070129394531 321.4049987792969 272.5180053710938 318.5360107421875 C 273.5589904785156 317.8880004882812 275.0180053710938 317.4309997558594 276.010986328125 316.8179931640625 C 280.7179870605469 313.9110107421875 285.6430053710938 311.2040100097656 290.5870056152344 308.9909973144531 C 293.2219848632812 307.81201171875 296.10400390625 306.4660034179688 298.718994140625 304.9679870605469 C 299.7879943847656 304.3559875488281 300.3619995117188 303.6059875488281 301.4580078125 302.9110107421875 C 302.4649963378906 302.2739868164062 304.1579895019531 301.8739929199219 305.2839965820312 301.2470092773438 C 307.1180114746094 300.2229919433594 308.5400085449219 299.06298828125 310.4620056152344 297.9490051269531 C 311.9150085449219 297.1069946289062 313.8980102539062 296.4159851074219 315.4779968261719 295.6430053710938 C 317.0539855957031 294.8710021972656 317.9719848632812 293.7829895019531 319.5570068359375 292.8770141601562 C 320.8590087890625 292.1329956054688 322.7300109863281 291.6640014648438 324.0750122070312 290.8309936523438 C 328.8580017089844 287.8689880371094 333.239013671875 285.81201171875 337.9570007324219 282.7070007324219 C 339.3909912109375 281.7630004882812 342.2219848632812 280.81201171875 343.8599853515625 279.8970031738281 C 345.5539855957031 278.9519958496094 347.0840148925781 277.6759948730469 348.7680053710938 276.9259948730469 C 349.6480102539062 276.5350036621094 352.781005859375 275.3410034179688 353.1650085449219 274.4590148925781 C 353.9830017089844 272.8900146484375 352.1489868164062 271.0119934082031 350.1990051269531 269.7489929199219 Z" fill="#ffffff" stroke="none" stroke-width="1" stroke-miterlimit="10" stroke-linecap="butt"/>
</svg>
